<svg xmlns="http://www.w3.org/2000/svg" width="48.229" height="48.229" viewBox="0 0 48.229 48.229">
  <g id="グループ_19" data-name="グループ 19" transform="translate(-946.386 -4780.189)">
    <path id="phone-volume-solid" d="M12.93,2.7a2.437,2.437,0,0,1,.93,2.919l-1.928,5.058a2.147,2.147,0,0,1-2.215,1.436L6.8,11.8a18.771,18.771,0,0,0,0,11.436l2.912-.314a2.147,2.147,0,0,1,2.215,1.435l1.928,5.052a2.421,2.421,0,0,1-.93,2.919L9.075,34.7a2.042,2.042,0,0,1-2.6-.376A25.16,25.16,0,0,1,6.47.7,2.06,2.06,0,0,1,9.081.32L12.937,2.7Zm14.93-.376A19.689,19.689,0,0,1,27.867,32.7a1.641,1.641,0,1,1-2.092-2.529,16.411,16.411,0,0,0,0-25.319,1.641,1.641,0,1,1,2.092-2.529ZM23.458,7.2a13.125,13.125,0,0,1,.007,20.617,1.64,1.64,0,1,1-2.03-2.577,9.851,9.851,0,0,0,0-15.462A1.64,1.64,0,1,1,23.465,7.2Zm-4.471,4.853a6.563,6.563,0,0,1,.007,10.9,1.64,1.64,0,1,1-1.832-2.721,3.282,3.282,0,0,0,0-5.455,1.64,1.64,0,1,1,1.832-2.721Z" transform="matrix(0.848, -0.53, 0.53, 0.848, 946.357, 4798.739)" fill="#fff"/>
    <g id="長方形_42" data-name="長方形 42" transform="translate(951.385 4785.483)" fill="#fff" stroke="#707070" stroke-width="1" opacity="0">
      <rect width="39" height="39" stroke="none"/>
      <rect x="0.5" y="0.5" width="38" height="38" fill="none"/>
    </g>
  </g>
</svg>
