<svg xmlns="http://www.w3.org/2000/svg" width="39" height="39" viewBox="0 0 39 39">
  <g id="グループ_18" data-name="グループ 18" transform="translate(-951 -4840)">
    <path id="book-solid" d="M7.5,0C3.359,0,0,2.939,0,6.563V28.438C0,32.061,3.359,35,7.5,35h25A2.357,2.357,0,0,0,35,32.813a2.357,2.357,0,0,0-2.5-2.188V26.25A2.357,2.357,0,0,0,35,24.063V2.188A2.357,2.357,0,0,0,32.5,0H7.5Zm0,26.25h20v4.375H7.5A2.357,2.357,0,0,1,5,28.438,2.357,2.357,0,0,1,7.5,26.25ZM10,9.844A1.183,1.183,0,0,1,11.25,8.75h15A1.183,1.183,0,0,1,27.5,9.844a1.183,1.183,0,0,1-1.25,1.094h-15A1.183,1.183,0,0,1,10,9.844Zm1.25,3.281h15a1.183,1.183,0,0,1,1.25,1.094,1.183,1.183,0,0,1-1.25,1.094h-15A1.183,1.183,0,0,1,10,14.219,1.183,1.183,0,0,1,11.25,13.125Z" transform="translate(952.744 4842.418)"/>
    <g id="長方形_43" data-name="長方形 43" transform="translate(951 4840)" fill="#fff" stroke="#707070" stroke-width="1" opacity="0">
      <rect width="39" height="39" stroke="none"/>
      <rect x="0.5" y="0.5" width="38" height="38" fill="none"/>
    </g>
  </g>
</svg>
